<svg width="14" height="16" viewBox="0 0 14 16" fill="none" xmlns="http://www.w3.org/2000/svg">
<path fill-rule="evenodd" clip-rule="evenodd" d="M9.75 0.666669H13.5C13.6326 0.666669 13.7598 0.701788 13.8536 0.7643C13.9473 0.826812 14 0.911597 14 1V1.66667C14 1.75507 13.9473 1.83986 13.8536 1.90237C13.7598 1.96488 13.6326 2 13.5 2H0.5C0.367392 2 0.240215 1.96488 0.146447 1.90237C0.0526784 1.83986 0 1.75507 0 1.66667V1C0 0.911597 0.0526784 0.826812 0.146447 0.7643C0.240215 0.701788 0.367392 0.666669 0.5 0.666669H4.25L4.54375 0.277086C4.60492 0.193686 4.7001 0.12346 4.81838 0.0744543C4.93665 0.025449 5.07324 -0.000353233 5.2125 3.65264e-06H8.78438C8.92395 -6.30825e-05 9.06078 0.0258357 9.17947 0.0747865C9.29817 0.123737 9.39402 0.193798 9.45625 0.277086L9.75 0.666669ZM2 4H12V15H2L2 4ZM1 15V3H13V15C13 15.5523 12.5523 16 12 16H2C1.44772 16 1 15.5523 1 15ZM5 5.5C5.27614 5.5 5.5 5.72386 5.5 6V12C5.5 12.2761 5.27614 12.5 5 12.5C4.72386 12.5 4.5 12.2761 4.5 12V6C4.5 5.72386 4.72386 5.5 5 5.5ZM9.5 6C9.5 5.72386 9.27614 5.5 9 5.5C8.72386 5.5 8.5 5.72386 8.5 6V12C8.5 12.2761 8.72386 12.5 9 12.5C9.27614 12.5 9.5 12.2761 9.5 12V6Z" fill="black"/>
</svg>
